# xmcd
#
# Track frame offsets:
#	150
#	13415
#	28578
#	44393
#	62655
#	91393
#	107916
#	125353
#	143352
#	162290
#	174658
#	192043
#	203810
#	221937
#	241829
#	257682
#
# Disc length: 3580 seconds
#
# Revision: 0
# Processed by: cddbd v1.5PL3 Copyright (c) Steve Scherf et al.
# Submitted via: dBpowerAMP V4.0
#
DISCID=e00dfa10
DTITLE=Various Artist - Soul men
DYEAR=2000
DGENRE=Soul
TTITLE0=When a Man Loves a Woman
TTITLE1=Emotions in Motion
TTITLE2=Knock on Wood
TTITLE3=Rainy Night in Georgia
TTITLE4=Have You Seen Her
TTITLE5=Come to Me
TTITLE6=Look Back Over Your Shoulder
TTITLE7=All Over The World
TTITLE8=Hurt The One You Love
TTITLE9=For You Precious Love
TTITLE10=Sweet Sherry
TTITLE11=Under The Boardwalk
TTITLE12=Teardrops
TTITLE13=If You Don`t Know me by Now
TTITLE14=Does Your Mama Know About Me
TTITLE15=Somewhere
EXTD=msps, various artist, recorded 2000, my name is Per-Arne
EXTT0=
EXTT1=
EXTT2=
EXTT3=
EXTT4=
EXTT5=
EXTT6=
EXTT7=
EXTT8=
EXTT9=
EXTT10=
EXTT11=
EXTT12=
EXTT13=
EXTT14=
EXTT15=
PLAYORDER=
